<?xml version="1.0" encoding="UTF-8"?>
<svg width="36px" height="32px" viewBox="0 0 36 32" version="1.1" xmlns="http://www.w3.org/2000/svg" xmlns:xlink="http://www.w3.org/1999/xlink">
    <!-- Generator: Sketch 48.1 (47250) - http://www.bohemiancoding.com/sketch -->
    <title>Group 3</title>
    <desc>Created with Sketch.</desc>
    <defs></defs>
    <g id="SC_V2_01_01_Product_AddNewProduct-HoverButton-02" stroke="none" stroke-width="1" fill="none" fill-rule="evenodd" transform="translate(-146.000000, -375.000000)">
        <g id="Group-3" transform="translate(146.000000, 375.000000)" fill="#00ACAE">
            <path d="M13,18.3333333 C14.1875059,18.3333333 15.281245,18.0595583 16.28125,17.512 C17.281255,16.9644417 18.0729138,16.221338 18.65625,15.2826667 C19.2395863,14.3439953 19.53125,13.3173389 19.53125,12.2026667 C19.53125,11.0879944 19.2395863,10.061338 18.65625,9.12266667 C18.0729138,8.18399531 17.281255,7.44089163 16.28125,6.89333333 C15.281245,6.34577504 14.1875059,6.072 13,6.072 C11.8124941,6.072 10.718755,6.34577504 9.71875,6.89333333 C8.718745,7.44089163 7.92708625,8.18399531 7.34375,9.12266667 C6.76041375,10.061338 6.46875,11.0879944 6.46875,12.2026667 C6.46875,13.3173389 6.76041375,14.3439953 7.34375,15.2826667 C7.92708625,16.221338 8.718745,16.9644417 9.71875,17.512 C10.718755,18.0595583 11.8124941,18.3333333 13,18.3333333 Z M9.09375,0 L16.90625,0 L19.28125,2.40533333 L23.4375,2.40533333 C24.1458369,2.40533333 24.7499975,2.64977533 25.25,3.13866667 C25.7500025,3.627558 26,4.20444112 26,4.86933333 L26,19.536 C26,20.2008922 25.7500025,20.7777753 25.25,21.2666667 C24.7499975,21.755558 24.1458369,22 23.4375,22 L2.5625,22 C1.85416313,22 1.2500025,21.755558 0.75,21.2666667 C0.2499975,20.7777753 0,20.2008922 0,19.536 L0,4.86933333 C0,4.20444112 0.2499975,3.627558 0.75,3.13866667 C1.2500025,2.64977533 1.85416313,2.40533333 2.5625,2.40533333 L6.71875,2.40533333 L9.09375,0 Z M8.84375,12.2026667 C8.84375,11.4986631 9.03124813,10.8484474 9.40625,10.252 C9.78125188,9.65555257 10.2864552,9.18133509 10.921875,8.82933333 C11.5572948,8.47733157 12.2499962,8.30133333 13,8.30133333 C13.7500038,8.30133333 14.4427052,8.47733157 15.078125,8.82933333 C15.7135448,9.18133509 16.2187481,9.65555257 16.59375,10.252 C16.9687519,10.8484474 17.15625,11.4986631 17.15625,12.2026667 C17.15625,12.9066702 16.9687519,13.5568859 16.59375,14.1533333 C16.2187481,14.7497808 15.7135448,15.2239982 15.078125,15.576 C14.4427052,15.9280018 13.7500038,16.104 13,16.104 C12.2499962,16.104 11.5572948,15.9280018 10.921875,15.576 C10.2864552,15.2239982 9.78125188,14.7497808 9.40625,14.1533333 C9.03124813,13.5568859 8.84375,12.9066702 8.84375,12.2026667 Z" id="photo_camera---materialicons-regular"></path>
            <polygon id="ion-plus---Ionicons" points="36 25 36 27 31 27 31 32 29 32 29 27 24 27 24 25 29 25 29 20 31 20 31 25"></polygon>
        </g>
    </g>
</svg>