<?xml version="1.0" encoding="UTF-8"?>
<svg width="20px" height="20px" viewBox="0 0 20 20" version="1.1" xmlns="http://www.w3.org/2000/svg" xmlns:xlink="http://www.w3.org/1999/xlink">
    <!-- Generator: Sketch 48.1 (47250) - http://www.bohemiancoding.com/sketch -->
    <title>Page 1</title>
    <desc>Created with Sketch.</desc>
    <defs>
        <polygon id="path-1" points="0 8.95370732 0 0.177853659 4.78678481 0.177853659 4.78678481 8.95370732"></polygon>
        <polygon id="path-3" points="0.0857468354 0.103658537 16.9457468 0.103658537 16.9457468 8.32339024 0.0857468354 8.32339024"></polygon>
    </defs>
    <g id="SC_V2_01_01_Product_AddNewProduct-01-Copy" stroke="none" stroke-width="1" fill="none" fill-rule="evenodd" transform="translate(-801.000000, -290.000000)">
        <g id="Page-1" transform="translate(801.000000, 290.000000)">
            <g id="Group-3" transform="translate(0.000000, 5.506146)">
                <mask id="mask-2" fill="white">
                    <use xlink:href="#path-1"></use>
                </mask>
                <g id="Clip-2"></g>
                <path d="M4.47843038,4.56468293 C4.47843038,4.0117561 4.55716456,3.4722439 4.70678481,2.95760976 L1.09843038,0.177853659 C0.380202532,1.52639024 -5.06329114e-05,3.02004878 -5.06329114e-05,4.56468293 C-5.06329114e-05,6.11029268 0.380455696,7.60468293 1.0996962,8.95370732 L4.78678481,6.42346341 C4.58475949,5.83419512 4.47843038,5.20858537 4.47843038,4.56468293" id="Fill-1" fill="#F0C130" mask="url(#mask-2)"></path>
            </g>
            <g id="Group-6" transform="translate(1.012658, 0.140293)">
                <mask id="mask-4" fill="white">
                    <use xlink:href="#path-3"></use>
                </mask>
                <g id="Clip-5"></g>
                <path d="M5.16473418,5.8692439 C6.2616962,4.79265854 7.73865823,4.19997561 9.32321519,4.19997561 C10.8880253,4.19997561 12.2049873,4.70265854 13.3495443,5.73680488 L13.9487848,6.27826829 L16.9457468,3.39095122 L16.3176456,2.81339024 C14.3351139,0.98997561 12.0472658,0.103634146 9.32321519,0.103634146 C6.59865823,0.103634146 4.01663291,1.12509756 2.05283544,2.97997561 C1.24372152,3.74412195 0.583468354,4.609 0.0857468354,5.54363415 L3.69410127,8.32339024 C3.9624557,7.40119512 4.4616962,6.5594878 5.16473418,5.8692439" id="Fill-4" fill="#DB3A36" mask="url(#mask-4)"></path>
            </g>
            <path d="M17.4641266,17.1237561 C19.5998228,15.0613171 19.9188101,12.274 19.9188101,10.7949756 C19.9188101,10.1559512 19.8669114,9.5842439 19.7648861,9.09619512 L19.6274177,8.44058537 L9.48767089,8.44058537 L9.48767089,12.5357073 L15.4208354,12.5357073 C15.2190633,13.2493659 14.9005823,13.8113171 14.4577975,14.2386341 C14.297038,14.3930244 14.1102025,14.5593659 13.890962,14.7237561 L16.7788101,17.748878 C17.014,17.554 17.2423544,17.3459512 17.4641266,17.1237561" id="Fill-7" fill="#356DA4"></path>
            <path d="M10.3359494,15.8000488 C8.75113924,15.8000488 7.27417722,15.207122 6.17746835,14.1307805 C5.53873418,13.504439 5.06886076,12.7527317 4.78683544,11.929561 L1.09974684,14.4598049 C1.59746835,15.3934634 2.25696203,16.2573659 3.06556962,17.0207805 C5.02936709,18.8751707 7.61139241,19.8963902 10.3359494,19.8963902 C12.9217722,19.8963902 15.0389873,19.192 16.7787342,17.7488293 L13.8908861,14.7237073 C13.1579747,15.2722439 12.0594937,15.8000488 10.3359494,15.8000488" id="Fill-9" fill="#61BB56"></path>
        </g>
    </g>
</svg>