<?xml version="1.0" encoding="UTF-8"?>
<svg width="19px" height="23px" viewBox="0 0 19 23" version="1.1" xmlns="http://www.w3.org/2000/svg" xmlns:xlink="http://www.w3.org/1999/xlink">
    <!-- Generator: Sketch 48.1 (47250) - http://www.bohemiancoding.com/sketch -->
    <title>Page 1</title>
    <desc>Created with Sketch.</desc>
    <defs></defs>
    <g id="SC_V2_01_01_Product_AddNewProduct-01-Copy" stroke="none" stroke-width="1" fill="none" fill-rule="evenodd" transform="translate(-347.000000, -350.000000)">
        <g id="Page-1" transform="translate(347.000000, 351.000000)">
            <path d="M1.4343,8.4468 C1.4343,4.0578 4.9933,0.4998 9.3813,0.4998 C13.7703,0.4998 17.3283,4.0578 17.3283,8.4468" id="Stroke-1" stroke="#4A4A4A"></path>
            <path d="M4.2478,11.2842 C3.9838,10.2832 2.9498,9.6792 1.9488,9.9432 C0.9468,10.2062 0.3438,11.2412 0.6068,12.2422 L0.8068,12.9982 L0.6298,13.1192 C0.5258,13.1922 0.4768,13.3222 0.5098,13.4442 L0.7868,14.5012 C0.8188,14.6232 0.9258,14.7132 1.0518,14.7242 L1.2658,14.7442 L1.4308,15.3702 C1.6928,16.3712 2.7278,16.9752 3.7288,16.7122 C4.7298,16.4492 5.3338,15.4142 5.0698,14.4122 L4.2478,11.2842 Z" id="Stroke-3" stroke="#4A4A4A" stroke-linejoin="round"></path>
            <path d="M18.1325,13.1197 L17.9565,12.9977 L18.1555,12.2417 C18.4185,11.2407 17.8155,10.2057 16.8145,9.9427 C15.8135,9.6797 14.7785,10.2837 14.5155,11.2847 L13.6925,14.4127 C13.4285,15.4137 14.0315,16.4487 15.0335,16.7117 C16.0345,16.9747 17.0695,16.3717 17.3325,15.3707 L17.4965,14.7447 L17.7105,14.7247 C17.8375,14.7137 17.9435,14.6237 17.9755,14.5007 L18.2525,13.4447 C18.2845,13.3217 18.2365,13.1917 18.1325,13.1197 Z" id="Stroke-5" stroke="#4A4A4A" stroke-linejoin="round"></path>
            <path d="M15.2439,16.7735 C15.2439,16.7735 13.8719,20.7445 9.0979,20.4535" id="Stroke-7" stroke="#4A4A4A" stroke-width="0.5"></path>
            <path d="M10.0427,21.1426 L8.7197,21.1426 C8.3497,21.1426 8.0457,20.8396 8.0457,20.4696 C8.0457,20.0986 8.3497,19.7956 8.7197,19.7956 L10.0427,19.7956 C10.4137,19.7956 10.7167,20.0986 10.7167,20.4696 C10.7167,20.8396 10.4137,21.1426 10.0427,21.1426" id="Fill-9" fill="#4A4A4A"></path>
        </g>
    </g>
</svg>