<?xml version="1.0" encoding="UTF-8"?>
<svg width="20px" height="20px" viewBox="0 0 20 20" version="1.1" xmlns="http://www.w3.org/2000/svg" xmlns:xlink="http://www.w3.org/1999/xlink">
    <!-- Generator: Sketch 48.1 (47250) - http://www.bohemiancoding.com/sketch -->
    <title>inst-check-2</title>
    <desc>Created with Sketch.</desc>
    <defs></defs>
    <g id="SC_V2_01_01_Product_AddNewProduct-PopUpWindowIG-07" stroke="none" stroke-width="1" fill="none" fill-rule="evenodd" transform="translate(-704.000000, -343.000000)">
        <g id="Group-3" fill="#FFFFFF">
            <g id="Group" transform="translate(373.000000, 190.000000)">
                <g id="inst-check-2" transform="translate(331.000000, 153.000000)">
                    <g id="inst-check">
                        <path d="M10,0 C12.767871,0 15.1264783,0.974692634 17.0758929,2.92410714 C19.0253074,4.87352165 20,7.23212902 20,10 C20,12.767871 19.0253074,15.1264783 17.0758929,17.0758929 C15.1264783,19.0253074 12.767871,20 10,20 C7.23212902,20 4.87352165,19.0253074 2.92410714,17.0758929 C0.974692634,15.1264783 0,12.767871 0,10 C0,7.23212902 0.974692634,4.87352165 2.92410714,2.92410714 C4.87352165,0.974692634 7.23212902,0 10,0 Z M15.1339286,6.65178571 C15.1636906,6.62202366 15.1785714,6.57738125 15.1785714,6.51785714 C15.1785714,6.42857098 15.1636906,6.36904777 15.1339286,6.33928571 L13.75,5.26785714 C13.7202379,5.23809509 13.6607147,5.22321429 13.5714286,5.22321429 C13.5119045,5.22321429 13.4672621,5.23809509 13.4375,5.26785714 L8.48214286,11.6517857 C7.1726125,10.4017795 6.50297634,9.76190491 6.47321429,9.73214286 C6.38392813,9.6428567 6.2946433,9.59821429 6.20535714,9.59821429 C6.17559509,9.59821429 6.11607187,9.6428567 6.02678571,9.73214286 L4.86607143,10.8928571 C4.83630937,10.9226192 4.82142857,10.9821424 4.82142857,11.0714286 C4.82142857,11.1309527 4.83630937,11.1755951 4.86607143,11.2053571 L4.95535714,11.25 C7.27679732,13.482154 8.4523808,14.6130951 8.48214286,14.6428571 C8.57142902,14.7321433 8.64583304,14.7767857 8.70535714,14.7767857 C8.76488125,14.7767857 8.83928527,14.7321433 8.92857143,14.6428571 L15.1339286,6.65178571 Z" id="ion-checkmark-circled---Ionicons"></path>
                    </g>
                </g>
            </g>
        </g>
    </g>
</svg>