<?xml version="1.0" encoding="UTF-8"?>
<svg width="20px" height="20px" viewBox="0 0 20 20" version="1.1" xmlns="http://www.w3.org/2000/svg" xmlns:xlink="http://www.w3.org/1999/xlink">
    <!-- Generator: Sketch 48.1 (47250) - http://www.bohemiancoding.com/sketch -->
    <title>Page 1</title>
    <desc>Created with Sketch.</desc>
    <defs></defs>
    <g id="SC_V2_01_01_Product_AddNewProduct-01-Copy" stroke="none" stroke-width="1" fill="none" fill-rule="evenodd" transform="translate(-346.000000, -426.000000)">
        <g id="Page-1" transform="translate(346.000000, 426.000000)" stroke="#4A4A4A">
            <path d="M0.5,9.2631 C0.5,10.8581 1.138,13.7301 3.372,15.9631 C5.605,18.1971 8.476,18.8351 10.071,18.8351 C11.986,18.8351 13.262,17.2401 13.262,16.2821 C12.305,15.3271 10.709,14.3681 9.752,14.0491 C8.476,15.0091 7.838,16.6011 5.286,14.0491 C2.733,11.4961 4.329,10.8581 5.286,9.5821 C4.967,8.6251 4.009,7.0301 3.052,6.0731 C2.095,6.0731 0.5,7.3491 0.5,9.2631 Z" id="Stroke-1"></path>
            <path d="M14.3321,16.1001 C17.1631,14.8161 19.1391,11.9701 19.1391,8.6651 C19.1391,4.1631 15.4761,0.5001 10.9741,0.5001 C7.6691,0.5001 4.8241,2.4761 3.5401,5.3061" id="Stroke-3"></path>
            <polyline id="Stroke-5" points="13.7603 9.0254 11.3393 9.0254 11.3393 5.2424"></polyline>
        </g>
    </g>
</svg>